<svg width="18" height="18" viewBox="0 0 18 18" fill="none" xmlns="http://www.w3.org/2000/svg">
<path d="M9.65299 11.3032L7.74799 9.42069L7.77049 9.39819C9.07549 7.94319 10.0055 6.27069 10.553 4.50069H12.7505V3.00069H7.50049V1.50069H6.00049V3.00069H0.750488V4.49319H9.12799C8.62549 5.94069 7.83049 7.31319 6.75049 8.51319C6.05299 7.74069 5.47549 6.89319 5.01799 6.00069H3.51799C4.06549 7.22319 4.81549 8.37819 5.75299 9.42069L1.93549 13.1857L3.00049 14.2507L6.75049 10.5007L9.08299 12.8332L9.65299 11.3032ZM13.8755 7.50069H12.3755L9.00049 16.5007H10.5005L11.3405 14.2507H14.903L15.7505 16.5007H17.2505L13.8755 7.50069ZM11.9105 12.7507L13.1255 9.50319L14.3405 12.7507H11.9105Z" fill="#0A2745"/>
</svg>
