<svg width="50" height="16" viewBox="0 0 50 16" fill="none" xmlns="http://www.w3.org/2000/svg">
<path d="M25.9511 2.92705C25.6517 2.00574 24.3483 2.00574 24.0489 2.92705L23.4284 4.83688C23.2945 5.2489 22.9106 5.52786 22.4773 5.52786H20.4692C19.5005 5.52786 19.0977 6.76748 19.8814 7.33688L21.506 8.51722C21.8565 8.77187 22.0032 9.22323 21.8693 9.63526L21.2488 11.5451C20.9494 12.4664 22.0039 13.2325 22.7876 12.6631L24.4122 11.4828C24.7627 11.2281 25.2373 11.2281 25.5878 11.4828L27.2124 12.6631C27.9961 13.2325 29.0506 12.4664 28.7512 11.5451L28.1307 9.63526C27.9968 9.22323 28.1435 8.77186 28.494 8.51722L30.1186 7.33688C30.9023 6.76748 30.4995 5.52786 29.5308 5.52786H27.5227C27.0894 5.52786 26.7055 5.2489 26.5716 4.83688L25.9511 2.92705Z" fill="#FCB71E"/>
<line x1="33" y1="7.5" x2="50" y2="7.5" stroke="#FCB71E"/>
<line y1="7.5" x2="17" y2="7.5" stroke="#FCB71E"/>
</svg>
