<svg width="6" height="10" viewBox="0 0 6 10" fill="none" xmlns="http://www.w3.org/2000/svg">
<path d="M0.20375 5.5774L5.83875 9.97865C5.85347 9.99024 5.87117 9.99745 5.8898 9.99944C5.90844 10.0014 5.92725 9.99812 5.94409 9.98989C5.96093 9.98167 5.97511 9.96886 5.985 9.95295C5.99489 9.93703 6.00009 9.91864 6 9.8999L6 8.93365C6 8.8724 5.97125 8.81365 5.92375 8.77615L1.42375 5.2624L5.92375 1.74865C5.9725 1.71115 6 1.6524 6 1.59115L6 0.624902C6 0.541152 5.90375 0.494903 5.83875 0.546152L0.20375 4.9474C0.155856 4.98476 0.117111 5.03255 0.0904631 5.08713C0.0638146 5.14172 0.0499629 5.20166 0.0499629 5.2624C0.0499629 5.32314 0.0638146 5.38309 0.0904631 5.43767C0.117111 5.49225 0.155856 5.54004 0.20375 5.5774Z" fill="black" fill-opacity="0.45"/>
</svg>
