<svg width="62" height="28" viewBox="0 0 62 28" fill="none" xmlns="http://www.w3.org/2000/svg">
<path fill-rule="evenodd" clip-rule="evenodd" d="M25.1047 16.8282H47.1121L49.8538 13.8077H27.8477C26.8564 14.8991 25.9237 15.9266 25.1047 16.8282Z" fill="#FCB71E"/>
<path fill-rule="evenodd" clip-rule="evenodd" d="M28.8701 12.4345H50.8735L53.6156 9.41403H31.6107C30.7002 10.4193 29.7748 11.4398 28.8701 12.4345Z" fill="#FCB71E"/>
<path fill-rule="evenodd" clip-rule="evenodd" d="M33.2637 8.04116H55.2648L58.008 5.02112H36.0054C35.17 5.9445 34.2367 6.97026 33.2637 8.04116Z" fill="#FCB71E"/>
<path fill-rule="evenodd" clip-rule="evenodd" d="M60.7703 0.00198194L41.0426 0C40.3718 0 39.7605 0.308743 39.3548 0.773398C39.3548 0.773398 38.4412 1.78199 37.0291 3.33759H59.029L61.2004 0.944506C61.2853 0.848269 61.3376 0.721207 61.3376 0.583132C61.3376 0.281656 61.076 0.00198194 60.7703 0.00198194Z" fill="#FCB71E"/>
<path fill-rule="evenodd" clip-rule="evenodd" d="M23.4054 18.3249L23.4094 15.6431C23.4094 15.2419 23.2162 14.8825 22.9123 14.664L12.3998 7.74309C12.2044 7.609 11.9674 7.53168 11.7117 7.53168C11.4572 7.53168 11.2186 7.61052 11.0238 7.74332L0.489789 14.6753C0.195256 14.8959 0 15.2474 0 15.6407C0 16.0426 0.195256 16.4191 0.498474 16.6396L16.8137 27.4865C17.2639 27.7854 17.8336 28.0001 18.4143 28.0001H35.207C36.2047 27.9897 37.1372 27.566 37.772 26.8981L45.5511 18.3249H23.4054ZM18.9492 22.6986C18.9492 22.9373 18.7537 23.1329 18.5105 23.1329C18.4185 23.1329 18.3323 23.1038 18.2601 23.0564L7.67486 16.084C7.57467 16.0034 7.51047 15.882 7.51047 15.7437C7.51047 15.5035 7.70728 15.309 7.94873 15.309H18.5105C18.7537 15.309 18.9492 15.5035 18.9492 15.7437V22.6986Z" fill="#FCB71E"/>
</svg>
