<svg width="96" height="48" viewBox="0 0 96 48" fill="none" xmlns="http://www.w3.org/2000/svg">
<path fill-rule="evenodd" clip-rule="evenodd" d="M6.69696 42.1045L4.25079 46.044L1.68263 42.1045H0L3.66054 47.552H4.68067L8.17123 42.1045H6.69696Z" fill="#014588"/>
<path fill-rule="evenodd" clip-rule="evenodd" d="M9.5332 47.552H10.8951V42.1045H9.5332V47.552Z" fill="#014588"/>
<path fill-rule="evenodd" clip-rule="evenodd" d="M13.5051 42.1045V47.552H18.9526V46.5277H14.7289V45.1761H17.1628V44.2471H14.7289V43.0351H18.9012V42.1045H13.5051Z" fill="#014588"/>
<path fill-rule="evenodd" clip-rule="evenodd" d="M20.655 42.1045V43.0755H23.3669V47.552H24.7378V43.0755H27.4644V42.1045H20.655Z" fill="#014588"/>
<path fill-rule="evenodd" clip-rule="evenodd" d="M28.0317 42.1045H28.979L33.1601 45.5774C33.4036 45.7728 33.6342 45.9785 33.8408 46.2194C33.8051 45.726 33.7829 45.3862 33.7829 45.2011V42.1045H35.0279V48H34.082L29.7181 44.3545C29.5419 44.2055 29.3819 44.0591 29.2219 43.8757C29.2677 44.3323 29.2776 44.6417 29.2776 44.8137V48H28.0317V42.1045Z" fill="#014588"/>
<path fill-rule="evenodd" clip-rule="evenodd" d="M40.1343 42.1045H41.4707L44.8811 48H43.3272L42.6138 46.7077H38.8449L38.1541 48H36.7705L40.1343 42.1045ZM42.0358 45.6466L40.7579 43.2468L39.4342 45.6466H42.0358Z" fill="#014588"/>
<path fill-rule="evenodd" clip-rule="evenodd" d="M47.0979 42.1045H48.2159L51.0171 45.67L53.7594 42.1045H54.8677V48H53.5856V44.3545C53.5856 44.2419 53.5991 44.034 53.6303 43.7269C53.5055 43.9894 53.3893 44.2055 53.2861 44.3454L51.0512 47.2917H50.7757L48.5413 44.3323C48.4045 44.1511 48.2744 43.9551 48.1837 43.7269C48.2063 43.966 48.2159 44.1625 48.2159 44.3545V48H47.0979V42.1045Z" fill="#014588"/>
<path fill-rule="evenodd" clip-rule="evenodd" d="M62.1921 42.1045H67.2821C68.1921 42.1045 68.6232 42.4237 68.6232 43.2469V44.5606C68.6232 45.3862 68.1921 45.7032 67.2821 45.7032H63.5501V48H62.1921V42.1045ZM63.5501 43.1214V44.688H66.66C67.0877 44.688 67.2821 44.6082 67.2821 44.2191V43.5902C67.2821 43.2023 67.0877 43.1214 66.66 43.1214H63.5501Z" fill="#014588"/>
<path fill-rule="evenodd" clip-rule="evenodd" d="M71.6106 42.1045H75.9877C77.1065 42.1045 77.4632 42.3913 77.4632 43.5V46.6068C77.4632 47.7137 77.1065 48 75.9877 48H71.6106C70.4931 48 70.1365 47.7137 70.1365 46.6068V43.5C70.1365 42.3913 70.4931 42.1045 71.6106 42.1045ZM71.5169 46.8915H76.0818V43.1557H71.5169V46.8915Z" fill="#014588"/>
<path fill-rule="evenodd" clip-rule="evenodd" d="M81.9161 43.134V44.4008H85.626C86.7454 44.4008 87.1121 44.6877 87.1121 45.794V46.6057C87.1121 47.7137 86.7454 48 85.626 48H81.9511C80.8323 48 80.4636 47.7137 80.4636 46.6057V46.4047H81.6867V46.8914H85.8915V45.5445H82.182C81.0636 45.5445 80.7099 45.2577 80.7099 44.1508V43.5002C80.7099 42.3913 81.0636 42.1045 82.182 42.1045H85.5574C86.6187 42.1045 87.0329 42.381 87.0329 43.3968V43.5367H85.8113V43.134H81.9161Z" fill="#014588"/>
<path fill-rule="evenodd" clip-rule="evenodd" d="M92.5218 48H91.138V43.1551H88.4082V42.1045H95.2626V43.1551H92.5218V48Z" fill="#014588"/>
<path fill-rule="evenodd" clip-rule="evenodd" d="M39.948 21.3006H67.8046L71.275 17.4773H43.42C42.1652 18.8588 40.9847 20.1594 39.948 21.3006Z" fill="#FBAF17"/>
<path fill-rule="evenodd" clip-rule="evenodd" d="M44.7146 15.7396H72.5662L76.037 11.9163H48.1836C47.0311 13.1888 45.8597 14.4805 44.7146 15.7396Z" fill="#FBAF17"/>
<path fill-rule="evenodd" clip-rule="evenodd" d="M50.2756 10.1782H78.1243L81.5966 6.35552H53.746C52.6886 7.52432 51.5073 8.82272 50.2756 10.1782Z" fill="#FBAF17"/>
<path fill-rule="evenodd" clip-rule="evenodd" d="M85.0933 0.00250871L60.1223 0C59.2732 0 58.4994 0.390801 57.9858 0.978955C57.9858 0.978955 56.8295 2.25561 55.042 4.22467H82.8892L85.6377 1.19554C85.7452 1.07373 85.8114 0.912892 85.8114 0.73812C85.8114 0.356516 85.4802 0.00250871 85.0933 0.00250871Z" fill="#FBAF17"/>
<path fill-rule="evenodd" clip-rule="evenodd" d="M37.7973 23.195L37.8024 19.8005C37.8024 19.2926 37.5578 18.8377 37.1732 18.5611L23.8667 9.80071C23.6193 9.63098 23.3193 9.53311 22.9957 9.53311C22.6734 9.53311 22.3715 9.6329 22.1249 9.801L8.79111 18.5753C8.41829 18.8547 8.17114 19.2995 8.17114 19.7974C8.17114 20.3061 8.41829 20.7827 8.8021 21.0617L29.4536 34.7917C30.0235 35.1699 30.7447 35.4417 31.4796 35.4417H52.7356C53.9985 35.4286 55.1788 34.8923 55.9823 34.0468L65.829 23.195H37.7973ZM32.1567 28.7311C32.1567 29.0333 31.9093 29.2808 31.6014 29.2808C31.485 29.2808 31.3759 29.2441 31.2845 29.1841L17.8859 20.3585C17.759 20.2565 17.6778 20.1029 17.6778 19.9278C17.6778 19.6237 17.9269 19.3776 18.2325 19.3776H31.6014C31.9093 19.3776 32.1567 19.6237 32.1567 19.9278V28.7311Z" fill="#FBAF17"/>
</svg>
