<svg width="7" height="10" viewBox="0 0 7 10" fill="none" xmlns="http://www.w3.org/2000/svg">
<path d="M6.77135 4.68529L1.13635 0.284043C1.12162 0.272451 1.10393 0.265247 1.08529 0.263258C1.06666 0.261269 1.04784 0.264577 1.031 0.272801C1.01416 0.281024 0.999986 0.293831 0.990097 0.30975C0.980209 0.325668 0.97501 0.344053 0.975099 0.362793V1.32904C0.975099 1.39029 1.00385 1.44904 1.05135 1.48654L5.55135 5.00029L1.05135 8.51404C1.0026 8.55154 0.975099 8.61029 0.975099 8.67154V9.63779C0.975099 9.72154 1.07135 9.76779 1.13635 9.71654L6.77135 5.31529C6.81924 5.27793 6.85799 5.23014 6.88464 5.17556C6.91128 5.12098 6.92514 5.06103 6.92514 5.00029C6.92514 4.93955 6.91128 4.87961 6.88464 4.82503C6.85799 4.77044 6.81924 4.72265 6.77135 4.68529Z" fill="black" fill-opacity="0.45"/>
</svg>
