<svg width="12" height="11" viewBox="0 0 12 11" fill="none" xmlns="http://www.w3.org/2000/svg">
<path d="M6.95106 0.927049C6.6517 0.00573826 5.3483 0.00573993 5.04894 0.927051L4.4284 2.83688C4.29453 3.2489 3.91057 3.52786 3.47735 3.52786H1.46923C0.500506 3.52786 0.0977325 4.76748 0.881446 5.33688L2.50605 6.51722C2.85653 6.77187 3.00319 7.22323 2.86932 7.63525L2.24878 9.54508C1.94942 10.4664 3.0039 11.2325 3.78762 10.6631L5.41222 9.48278C5.7627 9.22813 6.2373 9.22814 6.58779 9.48278L8.21239 10.6631C8.9961 11.2325 10.0506 10.4664 9.75122 9.54508L9.13068 7.63526C8.99681 7.22323 9.14347 6.77186 9.49396 6.51722L11.1186 5.33688C11.9023 4.76748 11.4995 3.52786 10.5308 3.52786H8.52265C8.08943 3.52786 7.70547 3.2489 7.5716 2.83688L6.95106 0.927049Z" fill="#FCB71E"/>
</svg>
